HIERARCHY
ROOT Hips
{
	OFFSET 0.000000 0.000000 0.000000
	CHANNELS 6 Xposition Yposition Zposition Xrotation Yrotation Zrotation
	JOINT LeftUpLeg_virtual
	{
		OFFSET 0.000000 0.000000 0.000000
		CHANNELS 3 Xrotation Yrotation Zrotation
		JOINT LeftUpLeg
		{
			OFFSET 15.427100 -6.655098 0.678600
			CHANNELS 3 Xrotation Yrotation Zrotation
			JOINT LeftLeg
			{
				OFFSET 4.081073 -39.591068 13.024000
				CHANNELS 3 Xrotation Yrotation Zrotation
				JOINT LeftFoot
				{
					OFFSET -4.081074 -37.707932 -15.979700
					CHANNELS 3 Xrotation Yrotation Zrotation
					JOINT LeftToeBase
					{
						OFFSET 5.346399 -15.068900 20.645000
						CHANNELS 3 Xrotation Yrotation Zrotation
						JOINT LeftToe_End
						{
							OFFSET 2.754700 0.931300 11.300900
							CHANNELS 3 Xrotation Yrotation Zrotation
							End Site
							{
								OFFSET 0 0 0
							}
						}
					}
				}
			}
		}
	}
	JOINT RightUpLeg_virtual
	{
		OFFSET 0.000000 0.000000 0.000000
		CHANNELS 3 Xrotation Yrotation Zrotation
		JOINT RightUpLeg
		{
			OFFSET -15.569500 -6.655098 0.678600
			CHANNELS 3 Xrotation Yrotation Zrotation
			JOINT RightLeg
			{
				OFFSET -4.081825 -39.591045 13.023800
				CHANNELS 3 Xrotation Yrotation Zrotation
				JOINT RightFoot
				{
					OFFSET 4.081824 -37.707954 -15.979600
					CHANNELS 3 Xrotation Yrotation Zrotation
					JOINT RightToeBase
					{
						OFFSET -5.346400 -15.068900 20.645000
						CHANNELS 3 Xrotation Yrotation Zrotation
						JOINT RightToe_End
						{
							OFFSET -2.754700 0.931300 11.300900
							CHANNELS 3 Xrotation Yrotation Zrotation
							End Site
							{
								OFFSET 0 0 0
							}
						}
					}
				}
			}
		}
	}
	JOINT Spine_virtual
	{
		OFFSET 0.000000 0.000000 0.000000
		CHANNELS 3 Xrotation Yrotation Zrotation
		JOINT Spine
		{
			OFFSET -0.279200 12.230698 -2.892100
			CHANNELS 3 Xrotation Yrotation Zrotation
			JOINT Spine1
			{
				OFFSET -0.232667 10.192268 -1.242267
				CHANNELS 3 Xrotation Yrotation Zrotation
				JOINT Spine1_split
				{
					OFFSET -0.232667 10.192268 -1.242267
					CHANNELS 3 Xrotation Yrotation Zrotation
					JOINT Spine2
					{
						OFFSET -0.232667 10.192268 -1.242267
						CHANNELS 3 Xrotation Yrotation Zrotation
						JOINT Neck_virtual
						{
							OFFSET 0.000000 0.000000 0.000000
							CHANNELS 3 Xrotation Yrotation Zrotation
							JOINT Neck
							{
								OFFSET -0.418800 17.814194 8.416900
								CHANNELS 3 Xrotation Yrotation Zrotation
								JOINT Head
								{
									OFFSET 0.000000 7.031097 3.806800
									CHANNELS 3 Xrotation Yrotation Zrotation
									JOINT HeadTop_End
									{
										OFFSET 0.000000 24.646606 12.978600
										CHANNELS 3 Xrotation Yrotation Zrotation
										End Site
										{
											OFFSET 0 0 0
										}
									}
								}
							}
						}
						JOINT LeftShoulder_virtual
						{
							OFFSET 0.000000 0.000000 0.000000
							CHANNELS 3 Xrotation Yrotation Zrotation
							JOINT LeftShoulder
							{
								OFFSET 8.476499 7.247704 -3.868750
								CHANNELS 3 Xrotation Yrotation Zrotation
								JOINT LeftShoulder_split
								{
									OFFSET 8.476499 7.247704 -3.868750
									CHANNELS 3 Xrotation Yrotation Zrotation
									JOINT LeftArm
									{
										OFFSET 9.308998 -2.777710 0.208600
										CHANNELS 3 Xrotation Yrotation Zrotation
										JOINT LeftForeArm
										{
											OFFSET 29.972298 0.000000 0.000000
											CHANNELS 3 Xrotation Yrotation Zrotation
											JOINT LeftHand
											{
												OFFSET 26.026505 0.000000 0.000000
												CHANNELS 3 Xrotation Yrotation Zrotation
												End Site
												{
													OFFSET 0 0 0
												}
											}
										}
									}
								}
							}
						}
						JOINT RightShoulder_virtual
						{
							OFFSET 0.000000 0.000000 0.000000
							CHANNELS 3 Xrotation Yrotation Zrotation
							JOINT RightShoulder
							{
								OFFSET -7.570500 7.247704 -3.868750
								CHANNELS 3 Xrotation Yrotation Zrotation
								JOINT RightShoulder_split
								{
									OFFSET -7.570500 7.247704 -3.868750
									CHANNELS 3 Xrotation Yrotation Zrotation
									JOINT RightArm
									{
										OFFSET -9.308998 -2.777710 0.208500
										CHANNELS 3 Xrotation Yrotation Zrotation
										JOINT RightForeArm
										{
											OFFSET -29.972300 0.000000 0.000000
											CHANNELS 3 Xrotation Yrotation Zrotation
											JOINT RightHand
											{
												OFFSET -26.026505 0.000000 0.000000
												CHANNELS 3 Xrotation Yrotation Zrotation
												End Site
												{
													OFFSET 0 0 0
												}
											}
										}
									}
								}
							}
						}
					}
				}
			}
		}
	}
}
MOTION
Frames: 7
Frame Time: 0.03333333
-21.750906 141.538269 29.965065 0.000000 0.000000 0.000000 7.690515 -19.580709 3.119012 -21.246381 8.549377 3.976631 28.877555 12.169943 6.939464 16.527024 -1.398360 2.680411 4.492885 0.491019 -2.333688 0.000000 0.000000 0.000000 7.475143 -17.762598 2.361824 -4.511668 -6.686787 -4.033392 13.651345 -15.864325 0.135097 29.370261 -2.379509 -5.691571 11.030031 -0.807414 0.244019 0.000000 0.000000 0.000000 5.641445 -16.314189 2.101061 0.696360 4.240102 2.603816 -5.042853 1.218316 -1.753738 2.203146 -2.442239 0.256166 0.000000 0.000000 0.000000 -0.898429 1.311295 -2.446445 -28.505629 2.049926 -0.305410 -6.501269 3.233713 4.485192 0.000000 0.000000 0.000000 -3.754975 1.271483 -1.869549 4.423335 -3.390659 22.505876 4.788570 6.514308 0.934769 -56.165899 -24.749651 23.120709 -23.925777 -47.874063 9.547895 0.000000 0.000000 0.000000 -3.581550 0.806168 -1.496212 -4.751070 -11.993754 -26.394298 -1.498899 -2.112122 -2.057716 -84.924824 34.569500 33.603393 -31.373081 43.853653 -4.457810 0.000000 0.000000 0.000000 
-22.636971 138.407883 31.324686 0.000000 0.000000 0.000000 6.636285 -18.018145 2.132165 -23.629678 9.222457 4.992558 30.824114 12.904460 6.781306 21.998684 -1.873682 3.533730 5.369885 0.495012 -2.549230 0.000000 0.000000 0.000000 6.881049 -15.357967 1.543619 -6.707243 -8.086013 -6.362212 17.412324 -14.092151 1.433505 33.907545 -0.627289 -4.321530 10.895858 0.002065 0.087770 0.000000 0.000000 0.000000 4.527992 -14.382956 1.242144 0.687709 4.470671 2.999251 -5.347686 1.132502 -1.372469 2.561981 -2.712049 0.608542 0.000000 0.000000 0.000000 -1.627244 1.251486 -1.941733 -27.997736 1.308334 -1.092052 -7.094926 1.632689 4.707405 0.000000 0.000000 0.000000 -4.303949 1.120729 -1.452228 5.275815 -2.452795 24.748670 3.887241 4.956950 2.070053 -52.069486 -18.987272 18.966880 -20.364726 -51.964708 11.834886 0.000000 0.000000 0.000000 -4.213936 0.756568 -1.004097 -2.603749 -10.265216 -24.093583 -2.338739 -2.791315 -1.990214 -80.034818 39.136335 31.504312 -30.564441 39.625786 -0.514581 0.000000 0.000000 0.000000 
-23.404873 134.988541 32.781116 0.000000 0.000000 0.000000 5.470696 -16.390736 1.277275 -25.673882 9.547368 5.728110 32.493163 13.645492 6.679661 26.273935 -2.424863 5.147123 5.843810 0.427685 -2.366187 0.000000 0.000000 0.000000 6.217297 -12.683522 0.928234 -8.115994 -8.173349 -7.587648 19.914902 -12.365073 2.030768 37.826260 0.529220 -2.397078 10.247786 0.680196 0.241855 0.000000 0.000000 0.000000 3.218030 -12.700248 0.629606 0.622985 4.567582 3.256154 -5.716725 1.008711 -0.910040 2.459600 -2.744742 0.613652 0.000000 0.000000 0.000000 -2.631786 1.164112 -1.372202 -27.219723 1.052613 -2.120761 -7.086080 0.177827 4.725284 0.000000 0.000000 0.000000 -4.896687 0.952734 -0.956989 5.635270 -0.434632 27.522141 2.848772 3.043026 2.870990 -49.475469 -16.274845 13.840410 -19.308284 -51.814747 12.276014 0.000000 0.000000 0.000000 -5.138698 0.686269 -0.428974 -0.730735 -7.799320 -23.729590 -2.584120 -3.065104 -1.592687 -75.709307 41.038437 28.418385 -29.396250 34.075363 2.094513 0.000000 0.000000 0.000000 
-24.075502 132.065674 34.544090 0.000000 0.000000 0.000000 4.357664 -14.873628 0.723438 -26.634258 9.483596 5.750593 33.500917 14.605989 6.832103 28.206378 -2.585308 7.321644 6.637094 0.364898 -2.102480 0.000000 0.000000 0.000000 5.497057 -10.106192 0.603463 -8.381778 -7.384327 -7.445663 20.886852 -11.477787 2.070268 40.082603 0.231240 -1.234787 10.678137 1.124810 0.787272 0.000000 0.000000 0.000000 2.044164 -11.373704 0.392957 0.403674 4.538940 3.321956 -6.176513 0.879424 -0.461683 1.850393 -2.335855 0.301906 0.000000 0.000000 0.000000 -3.780126 1.076225 -0.856694 -26.058475 0.967093 -3.251547 -6.494687 -0.941552 4.563109 0.000000 0.000000 0.000000 -5.543885 0.814899 -0.506036 5.604846 1.919726 30.488773 2.071845 1.343058 3.273729 -49.017129 -16.605450 9.073406 -21.110291 -47.853828 10.590242 0.000000 0.000000 0.000000 -6.224725 0.649616 0.115274 0.756585 -5.224084 -25.333117 -2.416896 -2.669864 -0.922742 -73.788111 40.604976 26.000737 -28.024297 28.528951 3.426745 0.000000 0.000000 0.000000 
-24.567221 130.094696 36.471420 0.000000 0.000000 0.000000 3.396262 -13.493139 0.473241 -26.208759 9.083999 5.210067 33.580499 15.547628 7.207418 28.340702 -2.446867 8.875196 7.420785 0.366632 -2.043295 0.000000 0.000000 0.000000 4.576815 -8.037985 0.581661 -7.648903 -6.303722 -6.285697 20.698154 -11.519040 1.688346 40.748127 -1.483737 -0.887692 11.166517 1.307838 1.423138 0.000000 0.000000 0.000000 1.186867 -10.316392 0.515309 0.001555 4.378119 3.179666 -6.720298 0.762698 -0.138846 1.272200 -1.786045 -0.049429 0.000000 0.000000 0.000000 -4.929371 0.978454 -0.490716 -24.498377 0.794646 -4.310739 -5.375848 -1.658302 4.289959 0.000000 0.000000 0.000000 -6.213146 0.760336 -0.248260 5.399469 3.968964 33.174417 1.793271 0.056559 3.082265 -50.711607 -19.525341 5.085942 -24.115125 -41.712034 8.096360 0.000000 0.000000 0.000000 -7.200825 0.674578 0.497368 1.852851 -3.172073 -28.468058 -2.174965 -1.775510 0.176490 -74.399932 38.842012 24.844581 -26.664539 24.323497 3.829502 0.000000 0.000000 0.000000 
-24.973293 129.057434 38.601254 0.000000 0.000000 0.000000 2.446009 -12.108521 0.557160 -24.912178 8.531279 4.450324 32.893812 16.312461 7.628190 27.698359 -2.294506 9.237935 7.446301 0.465224 -2.160620 0.000000 0.000000 0.000000 3.451154 -6.592581 0.810874 -6.740089 -5.457950 -4.879750 20.382470 -12.095477 1.369430 41.129562 -3.613068 -0.674937 10.132295 1.264024 1.837533 0.000000 0.000000 0.000000 0.655663 -9.335484 0.929970 -0.496563 4.139360 2.903530 -7.317061 0.660275 0.019347 0.611869 -1.137892 -0.233093 0.000000 0.000000 0.000000 -5.977813 0.883918 -0.334576 -22.555221 0.482925 -5.131867 -3.813095 -1.990607 3.985446 0.000000 0.000000 0.000000 -6.883525 0.793312 -0.227223 5.244622 5.353568 35.170618 2.056414 -0.481061 2.336810 -53.608505 -23.548208 2.014983 -26.857726 -35.464910 5.894237 0.000000 0.000000 0.000000 -7.972533 0.773254 0.648036 2.524855 -1.946095 -32.310107 -1.760424 -0.434498 1.336465 -76.340492 36.580383 24.627786 -25.518640 22.439924 3.699460 0.000000 0.000000 0.000000 
-25.388393 128.725418 40.726189 0.000000 0.000000 0.000000 1.544759 -10.886498 0.902607 -23.348614 8.356801 3.845607 31.918164 16.935727 7.901580 27.130855 -2.105665 8.648555 7.000813 0.586087 -2.415052 0.000000 0.000000 0.000000 2.225133 -5.466328 1.241203 -6.063704 -5.125896 -3.969250 20.118636 -12.327575 1.342397 41.908494 -4.593409 0.218896 7.690342 1.109093 1.834475 0.000000 0.000000 0.000000 0.311941 -8.400005 1.518966 -1.015577 3.850858 2.617134 -7.923048 0.564352 -0.003710 0.336800 -0.451616 -0.164504 0.000000 0.000000 0.000000 -6.852051 0.805160 -0.376994 -20.497765 0.057187 -5.677881 -2.076379 -1.894363 3.650278 0.000000 0.000000 0.000000 -7.533071 0.887745 -0.437820 5.334601 5.950914 36.263083 3.199219 -0.309572 1.306854 -56.571605 -27.404684 -0.282239 -28.707251 -30.868616 4.252222 0.000000 0.000000 0.000000 -8.463626 0.934820 0.569319 2.881603 -1.469324 -35.927628 -1.270512 0.970357 2.372586 -78.059165 34.415981 24.886132 -24.540651 22.849747 3.324521 0.000000 0.000000 0.000000 
